<mxfile host="app.diagrams.net" modified="2024-02-08T08:58:49.907Z" agent="Mozilla/5.0 (Windows NT 10.0; Win64; x64) AppleWebKit/537.36 (KHTML, like Gecko) Chrome/121.0.0.0 Safari/537.36" etag="b-M1v-3Sv5g674F1PlI3" version="23.1.2" type="github">
  <diagram name="Page-1" id="s7N1Tc7U8LfEpAxHkq8D">
    <mxGraphModel dx="2438" dy="892" grid="1" gridSize="10" guides="1" tooltips="1" connect="1" arrows="1" fold="1" page="1" pageScale="1" pageWidth="850" pageHeight="1100" math="0" shadow="0">
      <root>
        <mxCell id="0" />
        <mxCell id="1" parent="0" />
        <mxCell id="awePTyg2Fw0t5qTXh-jY-1" value="create" style="ellipse;whiteSpace=wrap;html=1;" vertex="1" parent="1">
          <mxGeometry x="380" y="50" width="120" height="80" as="geometry" />
        </mxCell>
        <mxCell id="awePTyg2Fw0t5qTXh-jY-2" value="Analytics" style="rounded=1;whiteSpace=wrap;html=1;" vertex="1" parent="1">
          <mxGeometry x="-310" y="300" width="120" height="60" as="geometry" />
        </mxCell>
        <mxCell id="awePTyg2Fw0t5qTXh-jY-63" style="edgeStyle=orthogonalEdgeStyle;rounded=0;orthogonalLoop=1;jettySize=auto;html=1;entryX=0.5;entryY=1;entryDx=0;entryDy=0;" edge="1" parent="1" source="awePTyg2Fw0t5qTXh-jY-3" target="awePTyg2Fw0t5qTXh-jY-1">
          <mxGeometry relative="1" as="geometry" />
        </mxCell>
        <mxCell id="awePTyg2Fw0t5qTXh-jY-3" value="Overview Tab" style="rounded=1;whiteSpace=wrap;html=1;" vertex="1" parent="1">
          <mxGeometry x="382" y="290" width="120" height="60" as="geometry" />
        </mxCell>
        <mxCell id="awePTyg2Fw0t5qTXh-jY-4" value="Other Device" style="rounded=1;whiteSpace=wrap;html=1;" vertex="1" parent="1">
          <mxGeometry x="1134" y="310" width="120" height="60" as="geometry" />
        </mxCell>
        <mxCell id="awePTyg2Fw0t5qTXh-jY-16" style="edgeStyle=orthogonalEdgeStyle;rounded=0;orthogonalLoop=1;jettySize=auto;html=1;exitX=0.5;exitY=0;exitDx=0;exitDy=0;entryX=0.5;entryY=1;entryDx=0;entryDy=0;" edge="1" parent="1" source="awePTyg2Fw0t5qTXh-jY-9" target="awePTyg2Fw0t5qTXh-jY-2">
          <mxGeometry relative="1" as="geometry" />
        </mxCell>
        <mxCell id="awePTyg2Fw0t5qTXh-jY-19" style="edgeStyle=orthogonalEdgeStyle;rounded=0;orthogonalLoop=1;jettySize=auto;html=1;exitX=0;exitY=1;exitDx=0;exitDy=0;entryX=0.5;entryY=0;entryDx=0;entryDy=0;" edge="1" parent="1" source="awePTyg2Fw0t5qTXh-jY-9" target="awePTyg2Fw0t5qTXh-jY-12">
          <mxGeometry relative="1" as="geometry" />
        </mxCell>
        <mxCell id="awePTyg2Fw0t5qTXh-jY-20" style="edgeStyle=orthogonalEdgeStyle;rounded=0;orthogonalLoop=1;jettySize=auto;html=1;exitX=0.5;exitY=1;exitDx=0;exitDy=0;entryX=0.5;entryY=0;entryDx=0;entryDy=0;" edge="1" parent="1" source="awePTyg2Fw0t5qTXh-jY-9" target="awePTyg2Fw0t5qTXh-jY-13">
          <mxGeometry relative="1" as="geometry" />
        </mxCell>
        <mxCell id="awePTyg2Fw0t5qTXh-jY-21" style="edgeStyle=orthogonalEdgeStyle;rounded=0;orthogonalLoop=1;jettySize=auto;html=1;exitX=1;exitY=0.5;exitDx=0;exitDy=0;" edge="1" parent="1" source="awePTyg2Fw0t5qTXh-jY-9" target="awePTyg2Fw0t5qTXh-jY-14">
          <mxGeometry relative="1" as="geometry" />
        </mxCell>
        <mxCell id="awePTyg2Fw0t5qTXh-jY-9" value="show" style="ellipse;whiteSpace=wrap;html=1;" vertex="1" parent="1">
          <mxGeometry x="-310" y="460" width="120" height="80" as="geometry" />
        </mxCell>
        <mxCell id="awePTyg2Fw0t5qTXh-jY-17" style="edgeStyle=orthogonalEdgeStyle;rounded=0;orthogonalLoop=1;jettySize=auto;html=1;exitX=0.5;exitY=0;exitDx=0;exitDy=0;entryX=0.25;entryY=1;entryDx=0;entryDy=0;" edge="1" parent="1" source="awePTyg2Fw0t5qTXh-jY-10" target="awePTyg2Fw0t5qTXh-jY-3">
          <mxGeometry relative="1" as="geometry" />
        </mxCell>
        <mxCell id="awePTyg2Fw0t5qTXh-jY-32" style="edgeStyle=orthogonalEdgeStyle;rounded=0;orthogonalLoop=1;jettySize=auto;html=1;" edge="1" parent="1" source="awePTyg2Fw0t5qTXh-jY-10" target="awePTyg2Fw0t5qTXh-jY-22">
          <mxGeometry relative="1" as="geometry" />
        </mxCell>
        <mxCell id="awePTyg2Fw0t5qTXh-jY-33" style="edgeStyle=orthogonalEdgeStyle;rounded=0;orthogonalLoop=1;jettySize=auto;html=1;exitX=0.5;exitY=1;exitDx=0;exitDy=0;" edge="1" parent="1" source="awePTyg2Fw0t5qTXh-jY-10" target="awePTyg2Fw0t5qTXh-jY-23">
          <mxGeometry relative="1" as="geometry" />
        </mxCell>
        <mxCell id="awePTyg2Fw0t5qTXh-jY-34" style="edgeStyle=orthogonalEdgeStyle;rounded=0;orthogonalLoop=1;jettySize=auto;html=1;exitX=1;exitY=0.5;exitDx=0;exitDy=0;entryX=0.75;entryY=0;entryDx=0;entryDy=0;" edge="1" parent="1" source="awePTyg2Fw0t5qTXh-jY-10" target="awePTyg2Fw0t5qTXh-jY-24">
          <mxGeometry relative="1" as="geometry" />
        </mxCell>
        <mxCell id="awePTyg2Fw0t5qTXh-jY-10" value="show" style="ellipse;whiteSpace=wrap;html=1;" vertex="1" parent="1">
          <mxGeometry x="353" y="470" width="120" height="80" as="geometry" />
        </mxCell>
        <mxCell id="awePTyg2Fw0t5qTXh-jY-18" style="edgeStyle=orthogonalEdgeStyle;rounded=0;orthogonalLoop=1;jettySize=auto;html=1;exitX=0.5;exitY=0;exitDx=0;exitDy=0;entryX=0.5;entryY=1;entryDx=0;entryDy=0;" edge="1" parent="1" source="awePTyg2Fw0t5qTXh-jY-11" target="awePTyg2Fw0t5qTXh-jY-4">
          <mxGeometry relative="1" as="geometry" />
        </mxCell>
        <mxCell id="awePTyg2Fw0t5qTXh-jY-35" style="edgeStyle=orthogonalEdgeStyle;rounded=0;orthogonalLoop=1;jettySize=auto;html=1;" edge="1" parent="1" source="awePTyg2Fw0t5qTXh-jY-11" target="awePTyg2Fw0t5qTXh-jY-29">
          <mxGeometry relative="1" as="geometry" />
        </mxCell>
        <mxCell id="awePTyg2Fw0t5qTXh-jY-38" style="edgeStyle=orthogonalEdgeStyle;rounded=0;orthogonalLoop=1;jettySize=auto;html=1;" edge="1" parent="1" source="awePTyg2Fw0t5qTXh-jY-11" target="awePTyg2Fw0t5qTXh-jY-31">
          <mxGeometry relative="1" as="geometry" />
        </mxCell>
        <mxCell id="awePTyg2Fw0t5qTXh-jY-39" style="edgeStyle=orthogonalEdgeStyle;rounded=0;orthogonalLoop=1;jettySize=auto;html=1;exitX=0.5;exitY=1;exitDx=0;exitDy=0;entryX=0.25;entryY=0;entryDx=0;entryDy=0;" edge="1" parent="1" source="awePTyg2Fw0t5qTXh-jY-11" target="awePTyg2Fw0t5qTXh-jY-30">
          <mxGeometry relative="1" as="geometry" />
        </mxCell>
        <mxCell id="awePTyg2Fw0t5qTXh-jY-11" value="show" style="ellipse;whiteSpace=wrap;html=1;" vertex="1" parent="1">
          <mxGeometry x="1134" y="480" width="120" height="60" as="geometry" />
        </mxCell>
        <mxCell id="awePTyg2Fw0t5qTXh-jY-12" value="Analytics&lt;br&gt;(selected as default &lt;br&gt;while creating )" style="rounded=1;whiteSpace=wrap;html=1;" vertex="1" parent="1">
          <mxGeometry x="-500" y="630" width="120" height="60" as="geometry" />
        </mxCell>
        <mxCell id="awePTyg2Fw0t5qTXh-jY-13" value="Overview Tab" style="rounded=1;whiteSpace=wrap;html=1;" vertex="1" parent="1">
          <mxGeometry x="-311" y="630" width="120" height="60" as="geometry" />
        </mxCell>
        <mxCell id="awePTyg2Fw0t5qTXh-jY-14" value="Other Device" style="rounded=1;whiteSpace=wrap;html=1;" vertex="1" parent="1">
          <mxGeometry x="-140" y="640" width="120" height="60" as="geometry" />
        </mxCell>
        <mxCell id="awePTyg2Fw0t5qTXh-jY-22" value="Analytics" style="rounded=1;whiteSpace=wrap;html=1;" vertex="1" parent="1">
          <mxGeometry x="208" y="670" width="120" height="60" as="geometry" />
        </mxCell>
        <mxCell id="awePTyg2Fw0t5qTXh-jY-23" value="Overview Tab&lt;br&gt;(selected as default&lt;br style=&quot;border-color: var(--border-color);&quot;&gt;while creating )" style="rounded=1;whiteSpace=wrap;html=1;" vertex="1" parent="1">
          <mxGeometry x="354" y="670" width="120" height="60" as="geometry" />
        </mxCell>
        <mxCell id="awePTyg2Fw0t5qTXh-jY-24" value="Other Device" style="rounded=1;whiteSpace=wrap;html=1;" vertex="1" parent="1">
          <mxGeometry x="538" y="670" width="120" height="60" as="geometry" />
        </mxCell>
        <mxCell id="awePTyg2Fw0t5qTXh-jY-29" value="Analytics" style="rounded=1;whiteSpace=wrap;html=1;" vertex="1" parent="1">
          <mxGeometry x="980" y="676" width="120" height="60" as="geometry" />
        </mxCell>
        <mxCell id="awePTyg2Fw0t5qTXh-jY-30" value="Overview Tab" style="rounded=1;whiteSpace=wrap;html=1;" vertex="1" parent="1">
          <mxGeometry x="1165" y="680" width="120" height="60" as="geometry" />
        </mxCell>
        <mxCell id="awePTyg2Fw0t5qTXh-jY-31" value="Other Device&lt;br&gt;(selected as default&lt;br style=&quot;border-color: var(--border-color);&quot;&gt;while creating )" style="rounded=1;whiteSpace=wrap;html=1;" vertex="1" parent="1">
          <mxGeometry x="1340" y="676" width="120" height="60" as="geometry" />
        </mxCell>
        <mxCell id="awePTyg2Fw0t5qTXh-jY-41" style="edgeStyle=orthogonalEdgeStyle;rounded=0;orthogonalLoop=1;jettySize=auto;html=1;entryX=0.5;entryY=1;entryDx=0;entryDy=0;" edge="1" parent="1" source="awePTyg2Fw0t5qTXh-jY-40" target="awePTyg2Fw0t5qTXh-jY-12">
          <mxGeometry relative="1" as="geometry" />
        </mxCell>
        <mxCell id="awePTyg2Fw0t5qTXh-jY-40" value="normal" style="rounded=1;whiteSpace=wrap;html=1;" vertex="1" parent="1">
          <mxGeometry x="-500" y="800" width="120" height="60" as="geometry" />
        </mxCell>
        <mxCell id="awePTyg2Fw0t5qTXh-jY-44" style="edgeStyle=orthogonalEdgeStyle;rounded=0;orthogonalLoop=1;jettySize=auto;html=1;entryX=0.5;entryY=1;entryDx=0;entryDy=0;" edge="1" parent="1" source="awePTyg2Fw0t5qTXh-jY-42" target="awePTyg2Fw0t5qTXh-jY-13">
          <mxGeometry relative="1" as="geometry" />
        </mxCell>
        <mxCell id="awePTyg2Fw0t5qTXh-jY-42" value="normal" style="rounded=1;whiteSpace=wrap;html=1;" vertex="1" parent="1">
          <mxGeometry x="-312" y="800" width="120" height="60" as="geometry" />
        </mxCell>
        <mxCell id="awePTyg2Fw0t5qTXh-jY-45" style="edgeStyle=orthogonalEdgeStyle;rounded=0;orthogonalLoop=1;jettySize=auto;html=1;" edge="1" parent="1" source="awePTyg2Fw0t5qTXh-jY-43" target="awePTyg2Fw0t5qTXh-jY-14">
          <mxGeometry relative="1" as="geometry" />
        </mxCell>
        <mxCell id="awePTyg2Fw0t5qTXh-jY-43" value="normal" style="rounded=1;whiteSpace=wrap;html=1;" vertex="1" parent="1">
          <mxGeometry x="-140" y="790" width="120" height="60" as="geometry" />
        </mxCell>
        <mxCell id="awePTyg2Fw0t5qTXh-jY-46" value="Show rules only related to the particular report&amp;nbsp;&lt;br&gt;eg(server)" style="rounded=1;whiteSpace=wrap;html=1;" vertex="1" parent="1">
          <mxGeometry x="202" y="830" width="120" height="60" as="geometry" />
        </mxCell>
        <mxCell id="awePTyg2Fw0t5qTXh-jY-50" style="edgeStyle=orthogonalEdgeStyle;rounded=0;orthogonalLoop=1;jettySize=auto;html=1;exitX=0.5;exitY=0;exitDx=0;exitDy=0;entryX=0.75;entryY=1;entryDx=0;entryDy=0;" edge="1" parent="1" source="awePTyg2Fw0t5qTXh-jY-47" target="awePTyg2Fw0t5qTXh-jY-23">
          <mxGeometry relative="1" as="geometry" />
        </mxCell>
        <mxCell id="awePTyg2Fw0t5qTXh-jY-47" value="normal" style="rounded=1;whiteSpace=wrap;html=1;" vertex="1" parent="1">
          <mxGeometry x="385" y="840" width="120" height="60" as="geometry" />
        </mxCell>
        <mxCell id="awePTyg2Fw0t5qTXh-jY-51" style="edgeStyle=orthogonalEdgeStyle;rounded=0;orthogonalLoop=1;jettySize=auto;html=1;exitX=0.5;exitY=0;exitDx=0;exitDy=0;" edge="1" parent="1" source="awePTyg2Fw0t5qTXh-jY-48">
          <mxGeometry relative="1" as="geometry">
            <mxPoint x="618.3076923076924" y="740" as="targetPoint" />
          </mxGeometry>
        </mxCell>
        <mxCell id="awePTyg2Fw0t5qTXh-jY-48" value="normal" style="rounded=1;whiteSpace=wrap;html=1;" vertex="1" parent="1">
          <mxGeometry x="558" y="840" width="120" height="60" as="geometry" />
        </mxCell>
        <mxCell id="awePTyg2Fw0t5qTXh-jY-52" style="edgeStyle=orthogonalEdgeStyle;rounded=0;orthogonalLoop=1;jettySize=auto;html=1;entryX=0.447;entryY=1.06;entryDx=0;entryDy=0;entryPerimeter=0;" edge="1" parent="1" source="awePTyg2Fw0t5qTXh-jY-46" target="awePTyg2Fw0t5qTXh-jY-22">
          <mxGeometry relative="1" as="geometry" />
        </mxCell>
        <mxCell id="awePTyg2Fw0t5qTXh-jY-56" style="edgeStyle=orthogonalEdgeStyle;rounded=0;orthogonalLoop=1;jettySize=auto;html=1;exitX=0.5;exitY=0;exitDx=0;exitDy=0;entryX=0.5;entryY=1;entryDx=0;entryDy=0;" edge="1" parent="1" source="awePTyg2Fw0t5qTXh-jY-53" target="awePTyg2Fw0t5qTXh-jY-29">
          <mxGeometry relative="1" as="geometry" />
        </mxCell>
        <mxCell id="awePTyg2Fw0t5qTXh-jY-53" value="Show rules only related to the particular report&amp;nbsp;&lt;br&gt;eg(server)" style="rounded=1;whiteSpace=wrap;html=1;" vertex="1" parent="1">
          <mxGeometry x="980" y="810" width="120" height="60" as="geometry" />
        </mxCell>
        <mxCell id="awePTyg2Fw0t5qTXh-jY-54" value="Show rules only related to the device Type" style="rounded=1;whiteSpace=wrap;html=1;" vertex="1" parent="1">
          <mxGeometry x="1175" y="820" width="120" height="60" as="geometry" />
        </mxCell>
        <mxCell id="awePTyg2Fw0t5qTXh-jY-58" style="edgeStyle=orthogonalEdgeStyle;rounded=0;orthogonalLoop=1;jettySize=auto;html=1;exitX=0.5;exitY=0;exitDx=0;exitDy=0;" edge="1" parent="1" source="awePTyg2Fw0t5qTXh-jY-55">
          <mxGeometry relative="1" as="geometry">
            <mxPoint x="1396.105263157895" y="740" as="targetPoint" />
          </mxGeometry>
        </mxCell>
        <mxCell id="awePTyg2Fw0t5qTXh-jY-55" value="normal" style="rounded=1;whiteSpace=wrap;html=1;" vertex="1" parent="1">
          <mxGeometry x="1336" y="820" width="120" height="60" as="geometry" />
        </mxCell>
        <mxCell id="awePTyg2Fw0t5qTXh-jY-57" style="edgeStyle=orthogonalEdgeStyle;rounded=0;orthogonalLoop=1;jettySize=auto;html=1;exitX=0.5;exitY=0;exitDx=0;exitDy=0;entryX=0.574;entryY=1.058;entryDx=0;entryDy=0;entryPerimeter=0;" edge="1" parent="1" source="awePTyg2Fw0t5qTXh-jY-54" target="awePTyg2Fw0t5qTXh-jY-30">
          <mxGeometry relative="1" as="geometry" />
        </mxCell>
        <mxCell id="awePTyg2Fw0t5qTXh-jY-62" value="" style="endArrow=classic;html=1;rounded=0;exitX=0.5;exitY=0;exitDx=0;exitDy=0;entryX=0;entryY=0.5;entryDx=0;entryDy=0;" edge="1" parent="1" source="awePTyg2Fw0t5qTXh-jY-2" target="awePTyg2Fw0t5qTXh-jY-1">
          <mxGeometry width="50" height="50" relative="1" as="geometry">
            <mxPoint x="360" y="230" as="sourcePoint" />
            <mxPoint x="410" y="180" as="targetPoint" />
          </mxGeometry>
        </mxCell>
        <mxCell id="awePTyg2Fw0t5qTXh-jY-65" value="" style="endArrow=classic;html=1;rounded=0;entryX=1;entryY=0.5;entryDx=0;entryDy=0;" edge="1" parent="1" source="awePTyg2Fw0t5qTXh-jY-4" target="awePTyg2Fw0t5qTXh-jY-1">
          <mxGeometry width="50" height="50" relative="1" as="geometry">
            <mxPoint x="1250" y="170" as="sourcePoint" />
            <mxPoint x="580" y="180" as="targetPoint" />
          </mxGeometry>
        </mxCell>
        <mxCell id="awePTyg2Fw0t5qTXh-jY-66" value="show" style="ellipse;whiteSpace=wrap;html=1;" vertex="1" parent="1">
          <mxGeometry x="410" y="1060" width="120" height="80" as="geometry" />
        </mxCell>
        <mxCell id="awePTyg2Fw0t5qTXh-jY-67" value="Analytics" style="rounded=1;whiteSpace=wrap;html=1;" vertex="1" parent="1">
          <mxGeometry x="-280" y="1310" width="120" height="60" as="geometry" />
        </mxCell>
        <mxCell id="awePTyg2Fw0t5qTXh-jY-68" style="edgeStyle=orthogonalEdgeStyle;rounded=0;orthogonalLoop=1;jettySize=auto;html=1;entryX=0.5;entryY=1;entryDx=0;entryDy=0;" edge="1" parent="1" source="awePTyg2Fw0t5qTXh-jY-69" target="awePTyg2Fw0t5qTXh-jY-66">
          <mxGeometry relative="1" as="geometry" />
        </mxCell>
        <mxCell id="awePTyg2Fw0t5qTXh-jY-69" value="Overview Tab" style="rounded=1;whiteSpace=wrap;html=1;" vertex="1" parent="1">
          <mxGeometry x="412" y="1300" width="120" height="60" as="geometry" />
        </mxCell>
        <mxCell id="awePTyg2Fw0t5qTXh-jY-70" value="Other Device" style="rounded=1;whiteSpace=wrap;html=1;" vertex="1" parent="1">
          <mxGeometry x="1164" y="1320" width="120" height="60" as="geometry" />
        </mxCell>
        <mxCell id="awePTyg2Fw0t5qTXh-jY-71" style="edgeStyle=orthogonalEdgeStyle;rounded=0;orthogonalLoop=1;jettySize=auto;html=1;exitX=0.5;exitY=0;exitDx=0;exitDy=0;entryX=0.5;entryY=1;entryDx=0;entryDy=0;" edge="1" parent="1" source="awePTyg2Fw0t5qTXh-jY-75" target="awePTyg2Fw0t5qTXh-jY-67">
          <mxGeometry relative="1" as="geometry" />
        </mxCell>
        <mxCell id="awePTyg2Fw0t5qTXh-jY-72" style="edgeStyle=orthogonalEdgeStyle;rounded=0;orthogonalLoop=1;jettySize=auto;html=1;exitX=0;exitY=1;exitDx=0;exitDy=0;entryX=0.5;entryY=0;entryDx=0;entryDy=0;" edge="1" parent="1" source="awePTyg2Fw0t5qTXh-jY-75" target="awePTyg2Fw0t5qTXh-jY-86">
          <mxGeometry relative="1" as="geometry" />
        </mxCell>
        <mxCell id="awePTyg2Fw0t5qTXh-jY-73" style="edgeStyle=orthogonalEdgeStyle;rounded=0;orthogonalLoop=1;jettySize=auto;html=1;exitX=0.5;exitY=1;exitDx=0;exitDy=0;entryX=0.5;entryY=0;entryDx=0;entryDy=0;" edge="1" parent="1" source="awePTyg2Fw0t5qTXh-jY-75" target="awePTyg2Fw0t5qTXh-jY-87">
          <mxGeometry relative="1" as="geometry" />
        </mxCell>
        <mxCell id="awePTyg2Fw0t5qTXh-jY-74" style="edgeStyle=orthogonalEdgeStyle;rounded=0;orthogonalLoop=1;jettySize=auto;html=1;exitX=1;exitY=0.5;exitDx=0;exitDy=0;" edge="1" parent="1" source="awePTyg2Fw0t5qTXh-jY-75" target="awePTyg2Fw0t5qTXh-jY-88">
          <mxGeometry relative="1" as="geometry" />
        </mxCell>
        <mxCell id="awePTyg2Fw0t5qTXh-jY-75" value="Edit" style="ellipse;whiteSpace=wrap;html=1;" vertex="1" parent="1">
          <mxGeometry x="-280" y="1470" width="120" height="80" as="geometry" />
        </mxCell>
        <mxCell id="awePTyg2Fw0t5qTXh-jY-76" style="edgeStyle=orthogonalEdgeStyle;rounded=0;orthogonalLoop=1;jettySize=auto;html=1;exitX=0.5;exitY=0;exitDx=0;exitDy=0;entryX=0.25;entryY=1;entryDx=0;entryDy=0;" edge="1" parent="1" source="awePTyg2Fw0t5qTXh-jY-80" target="awePTyg2Fw0t5qTXh-jY-69">
          <mxGeometry relative="1" as="geometry" />
        </mxCell>
        <mxCell id="awePTyg2Fw0t5qTXh-jY-77" style="edgeStyle=orthogonalEdgeStyle;rounded=0;orthogonalLoop=1;jettySize=auto;html=1;" edge="1" parent="1" source="awePTyg2Fw0t5qTXh-jY-80" target="awePTyg2Fw0t5qTXh-jY-89">
          <mxGeometry relative="1" as="geometry" />
        </mxCell>
        <mxCell id="awePTyg2Fw0t5qTXh-jY-78" style="edgeStyle=orthogonalEdgeStyle;rounded=0;orthogonalLoop=1;jettySize=auto;html=1;exitX=0.5;exitY=1;exitDx=0;exitDy=0;" edge="1" parent="1" source="awePTyg2Fw0t5qTXh-jY-80" target="awePTyg2Fw0t5qTXh-jY-90">
          <mxGeometry relative="1" as="geometry" />
        </mxCell>
        <mxCell id="awePTyg2Fw0t5qTXh-jY-79" style="edgeStyle=orthogonalEdgeStyle;rounded=0;orthogonalLoop=1;jettySize=auto;html=1;exitX=1;exitY=0.5;exitDx=0;exitDy=0;entryX=0.75;entryY=0;entryDx=0;entryDy=0;" edge="1" parent="1" source="awePTyg2Fw0t5qTXh-jY-80" target="awePTyg2Fw0t5qTXh-jY-91">
          <mxGeometry relative="1" as="geometry" />
        </mxCell>
        <mxCell id="awePTyg2Fw0t5qTXh-jY-80" value="Edit" style="ellipse;whiteSpace=wrap;html=1;" vertex="1" parent="1">
          <mxGeometry x="383" y="1480" width="120" height="80" as="geometry" />
        </mxCell>
        <mxCell id="awePTyg2Fw0t5qTXh-jY-81" style="edgeStyle=orthogonalEdgeStyle;rounded=0;orthogonalLoop=1;jettySize=auto;html=1;exitX=0.5;exitY=0;exitDx=0;exitDy=0;entryX=0.5;entryY=1;entryDx=0;entryDy=0;" edge="1" parent="1" source="awePTyg2Fw0t5qTXh-jY-85" target="awePTyg2Fw0t5qTXh-jY-70">
          <mxGeometry relative="1" as="geometry" />
        </mxCell>
        <mxCell id="awePTyg2Fw0t5qTXh-jY-82" style="edgeStyle=orthogonalEdgeStyle;rounded=0;orthogonalLoop=1;jettySize=auto;html=1;" edge="1" parent="1" source="awePTyg2Fw0t5qTXh-jY-85" target="awePTyg2Fw0t5qTXh-jY-92">
          <mxGeometry relative="1" as="geometry" />
        </mxCell>
        <mxCell id="awePTyg2Fw0t5qTXh-jY-83" style="edgeStyle=orthogonalEdgeStyle;rounded=0;orthogonalLoop=1;jettySize=auto;html=1;" edge="1" parent="1" source="awePTyg2Fw0t5qTXh-jY-85" target="awePTyg2Fw0t5qTXh-jY-94">
          <mxGeometry relative="1" as="geometry" />
        </mxCell>
        <mxCell id="awePTyg2Fw0t5qTXh-jY-84" style="edgeStyle=orthogonalEdgeStyle;rounded=0;orthogonalLoop=1;jettySize=auto;html=1;exitX=0.5;exitY=1;exitDx=0;exitDy=0;entryX=0.25;entryY=0;entryDx=0;entryDy=0;" edge="1" parent="1" source="awePTyg2Fw0t5qTXh-jY-85" target="awePTyg2Fw0t5qTXh-jY-93">
          <mxGeometry relative="1" as="geometry" />
        </mxCell>
        <mxCell id="awePTyg2Fw0t5qTXh-jY-85" value="Edit" style="ellipse;whiteSpace=wrap;html=1;" vertex="1" parent="1">
          <mxGeometry x="1164" y="1490" width="120" height="60" as="geometry" />
        </mxCell>
        <mxCell id="awePTyg2Fw0t5qTXh-jY-86" value="Analytics&lt;br&gt;(selected as default &lt;br&gt;while creating )" style="rounded=1;whiteSpace=wrap;html=1;" vertex="1" parent="1">
          <mxGeometry x="-470" y="1640" width="120" height="60" as="geometry" />
        </mxCell>
        <mxCell id="awePTyg2Fw0t5qTXh-jY-87" value="Overview Tab" style="rounded=1;whiteSpace=wrap;html=1;" vertex="1" parent="1">
          <mxGeometry x="-281" y="1640" width="120" height="60" as="geometry" />
        </mxCell>
        <mxCell id="awePTyg2Fw0t5qTXh-jY-88" value="Other Device" style="rounded=1;whiteSpace=wrap;html=1;" vertex="1" parent="1">
          <mxGeometry x="-110" y="1650" width="120" height="60" as="geometry" />
        </mxCell>
        <mxCell id="awePTyg2Fw0t5qTXh-jY-89" value="Analytics" style="rounded=1;whiteSpace=wrap;html=1;" vertex="1" parent="1">
          <mxGeometry x="238" y="1680" width="120" height="60" as="geometry" />
        </mxCell>
        <mxCell id="awePTyg2Fw0t5qTXh-jY-90" value="Overview Tab&lt;br&gt;(selected as default&lt;br style=&quot;border-color: var(--border-color);&quot;&gt;while creating )" style="rounded=1;whiteSpace=wrap;html=1;" vertex="1" parent="1">
          <mxGeometry x="384" y="1680" width="120" height="60" as="geometry" />
        </mxCell>
        <mxCell id="awePTyg2Fw0t5qTXh-jY-91" value="Other Device" style="rounded=1;whiteSpace=wrap;html=1;" vertex="1" parent="1">
          <mxGeometry x="568" y="1680" width="120" height="60" as="geometry" />
        </mxCell>
        <mxCell id="awePTyg2Fw0t5qTXh-jY-92" value="Analytics" style="rounded=1;whiteSpace=wrap;html=1;" vertex="1" parent="1">
          <mxGeometry x="1010" y="1686" width="120" height="60" as="geometry" />
        </mxCell>
        <mxCell id="awePTyg2Fw0t5qTXh-jY-93" value="Overview Tab" style="rounded=1;whiteSpace=wrap;html=1;" vertex="1" parent="1">
          <mxGeometry x="1195" y="1690" width="120" height="60" as="geometry" />
        </mxCell>
        <mxCell id="awePTyg2Fw0t5qTXh-jY-94" value="Other Device&lt;br&gt;(selected as default&lt;br style=&quot;border-color: var(--border-color);&quot;&gt;while creating )" style="rounded=1;whiteSpace=wrap;html=1;" vertex="1" parent="1">
          <mxGeometry x="1370" y="1686" width="120" height="60" as="geometry" />
        </mxCell>
        <mxCell id="awePTyg2Fw0t5qTXh-jY-95" style="edgeStyle=orthogonalEdgeStyle;rounded=0;orthogonalLoop=1;jettySize=auto;html=1;entryX=0.5;entryY=1;entryDx=0;entryDy=0;" edge="1" parent="1" source="awePTyg2Fw0t5qTXh-jY-96" target="awePTyg2Fw0t5qTXh-jY-86">
          <mxGeometry relative="1" as="geometry" />
        </mxCell>
        <mxCell id="awePTyg2Fw0t5qTXh-jY-96" value="normal" style="rounded=1;whiteSpace=wrap;html=1;" vertex="1" parent="1">
          <mxGeometry x="-470" y="1810" width="120" height="60" as="geometry" />
        </mxCell>
        <mxCell id="awePTyg2Fw0t5qTXh-jY-97" style="edgeStyle=orthogonalEdgeStyle;rounded=0;orthogonalLoop=1;jettySize=auto;html=1;entryX=0.5;entryY=1;entryDx=0;entryDy=0;" edge="1" parent="1" source="awePTyg2Fw0t5qTXh-jY-98" target="awePTyg2Fw0t5qTXh-jY-87">
          <mxGeometry relative="1" as="geometry" />
        </mxCell>
        <mxCell id="awePTyg2Fw0t5qTXh-jY-98" value="normal" style="rounded=1;whiteSpace=wrap;html=1;" vertex="1" parent="1">
          <mxGeometry x="-282" y="1810" width="120" height="60" as="geometry" />
        </mxCell>
        <mxCell id="awePTyg2Fw0t5qTXh-jY-99" style="edgeStyle=orthogonalEdgeStyle;rounded=0;orthogonalLoop=1;jettySize=auto;html=1;" edge="1" parent="1" source="awePTyg2Fw0t5qTXh-jY-100" target="awePTyg2Fw0t5qTXh-jY-88">
          <mxGeometry relative="1" as="geometry" />
        </mxCell>
        <mxCell id="awePTyg2Fw0t5qTXh-jY-100" value="normal" style="rounded=1;whiteSpace=wrap;html=1;" vertex="1" parent="1">
          <mxGeometry x="-110" y="1800" width="120" height="60" as="geometry" />
        </mxCell>
        <mxCell id="awePTyg2Fw0t5qTXh-jY-101" value="Show rules only related to the particular report&amp;nbsp;&lt;br&gt;eg(server)" style="rounded=1;whiteSpace=wrap;html=1;" vertex="1" parent="1">
          <mxGeometry x="232" y="1840" width="120" height="60" as="geometry" />
        </mxCell>
        <mxCell id="awePTyg2Fw0t5qTXh-jY-102" style="edgeStyle=orthogonalEdgeStyle;rounded=0;orthogonalLoop=1;jettySize=auto;html=1;exitX=0.5;exitY=0;exitDx=0;exitDy=0;entryX=0.75;entryY=1;entryDx=0;entryDy=0;" edge="1" parent="1" source="awePTyg2Fw0t5qTXh-jY-103" target="awePTyg2Fw0t5qTXh-jY-90">
          <mxGeometry relative="1" as="geometry" />
        </mxCell>
        <mxCell id="awePTyg2Fw0t5qTXh-jY-103" value="normal" style="rounded=1;whiteSpace=wrap;html=1;" vertex="1" parent="1">
          <mxGeometry x="415" y="1850" width="120" height="60" as="geometry" />
        </mxCell>
        <mxCell id="awePTyg2Fw0t5qTXh-jY-104" style="edgeStyle=orthogonalEdgeStyle;rounded=0;orthogonalLoop=1;jettySize=auto;html=1;exitX=0.5;exitY=0;exitDx=0;exitDy=0;" edge="1" parent="1" source="awePTyg2Fw0t5qTXh-jY-105">
          <mxGeometry relative="1" as="geometry">
            <mxPoint x="648.3076923076924" y="1750" as="targetPoint" />
          </mxGeometry>
        </mxCell>
        <mxCell id="awePTyg2Fw0t5qTXh-jY-105" value="normal" style="rounded=1;whiteSpace=wrap;html=1;" vertex="1" parent="1">
          <mxGeometry x="588" y="1850" width="120" height="60" as="geometry" />
        </mxCell>
        <mxCell id="awePTyg2Fw0t5qTXh-jY-106" style="edgeStyle=orthogonalEdgeStyle;rounded=0;orthogonalLoop=1;jettySize=auto;html=1;entryX=0.447;entryY=1.06;entryDx=0;entryDy=0;entryPerimeter=0;" edge="1" parent="1" source="awePTyg2Fw0t5qTXh-jY-101" target="awePTyg2Fw0t5qTXh-jY-89">
          <mxGeometry relative="1" as="geometry" />
        </mxCell>
        <mxCell id="awePTyg2Fw0t5qTXh-jY-107" style="edgeStyle=orthogonalEdgeStyle;rounded=0;orthogonalLoop=1;jettySize=auto;html=1;exitX=0.5;exitY=0;exitDx=0;exitDy=0;entryX=0.5;entryY=1;entryDx=0;entryDy=0;" edge="1" parent="1" source="awePTyg2Fw0t5qTXh-jY-108" target="awePTyg2Fw0t5qTXh-jY-92">
          <mxGeometry relative="1" as="geometry" />
        </mxCell>
        <mxCell id="awePTyg2Fw0t5qTXh-jY-108" value="Show rules only related to the particular report&amp;nbsp;&lt;br&gt;eg(server)" style="rounded=1;whiteSpace=wrap;html=1;" vertex="1" parent="1">
          <mxGeometry x="1010" y="1820" width="120" height="60" as="geometry" />
        </mxCell>
        <mxCell id="awePTyg2Fw0t5qTXh-jY-109" value="Show rules only related to the device Type" style="rounded=1;whiteSpace=wrap;html=1;" vertex="1" parent="1">
          <mxGeometry x="1205" y="1830" width="120" height="60" as="geometry" />
        </mxCell>
        <mxCell id="awePTyg2Fw0t5qTXh-jY-110" style="edgeStyle=orthogonalEdgeStyle;rounded=0;orthogonalLoop=1;jettySize=auto;html=1;exitX=0.5;exitY=0;exitDx=0;exitDy=0;" edge="1" parent="1" source="awePTyg2Fw0t5qTXh-jY-111">
          <mxGeometry relative="1" as="geometry">
            <mxPoint x="1426.105263157895" y="1750" as="targetPoint" />
          </mxGeometry>
        </mxCell>
        <mxCell id="awePTyg2Fw0t5qTXh-jY-111" value="normal" style="rounded=1;whiteSpace=wrap;html=1;" vertex="1" parent="1">
          <mxGeometry x="1366" y="1830" width="120" height="60" as="geometry" />
        </mxCell>
        <mxCell id="awePTyg2Fw0t5qTXh-jY-112" style="edgeStyle=orthogonalEdgeStyle;rounded=0;orthogonalLoop=1;jettySize=auto;html=1;exitX=0.5;exitY=0;exitDx=0;exitDy=0;entryX=0.574;entryY=1.058;entryDx=0;entryDy=0;entryPerimeter=0;" edge="1" parent="1" source="awePTyg2Fw0t5qTXh-jY-109" target="awePTyg2Fw0t5qTXh-jY-93">
          <mxGeometry relative="1" as="geometry" />
        </mxCell>
        <mxCell id="awePTyg2Fw0t5qTXh-jY-113" value="" style="endArrow=classic;html=1;rounded=0;exitX=0.5;exitY=0;exitDx=0;exitDy=0;entryX=0;entryY=0.5;entryDx=0;entryDy=0;" edge="1" parent="1" source="awePTyg2Fw0t5qTXh-jY-67" target="awePTyg2Fw0t5qTXh-jY-66">
          <mxGeometry width="50" height="50" relative="1" as="geometry">
            <mxPoint x="390" y="1240" as="sourcePoint" />
            <mxPoint x="440" y="1190" as="targetPoint" />
          </mxGeometry>
        </mxCell>
        <mxCell id="awePTyg2Fw0t5qTXh-jY-114" value="" style="endArrow=classic;html=1;rounded=0;entryX=1;entryY=0.5;entryDx=0;entryDy=0;" edge="1" parent="1" source="awePTyg2Fw0t5qTXh-jY-70" target="awePTyg2Fw0t5qTXh-jY-66">
          <mxGeometry width="50" height="50" relative="1" as="geometry">
            <mxPoint x="1280" y="1180" as="sourcePoint" />
            <mxPoint x="610" y="1190" as="targetPoint" />
          </mxGeometry>
        </mxCell>
      </root>
    </mxGraphModel>
  </diagram>
</mxfile>
